<svg id="Layer_1" data-name="Layer 1" xmlns="http://www.w3.org/2000/svg" viewBox="0 0 283.33 18.82"><defs><style>.cls-1{fill:#717174;}</style></defs><title>TZLG-Subdomain Microsite Lockups-1f1</title><path class="cls-1" d="M51.58,17.33l-5.26-15a2.8,2.8,0,0,1-.16-.72A1.28,1.28,0,0,1,47.46.38a1.36,1.36,0,0,1,1.31,1.09l4.35,12.9L57.51,1.44A1.32,1.32,0,0,1,58.78.38h.13a1.38,1.38,0,0,1,1.35,1.06l4.35,12.93L69,1.4a1.28,1.28,0,0,1,1.24-1,1.24,1.24,0,0,1,1.27,1.23,2.8,2.8,0,0,1-.16.72l-5.3,15a1.53,1.53,0,0,1-1.4,1.2h-.1a1.44,1.44,0,0,1-1.41-1.2L58.85,4.61,54.49,17.33a1.44,1.44,0,0,1-1.4,1.2H53a1.54,1.54,0,0,1-1.44-1.2"/><path class="cls-1" d="M89.9,1.68a1.29,1.29,0,1,1,2.58,0v3a7.06,7.06,0,0,1,6-4.34,1.25,1.25,0,0,1,1.27,1.33,1.3,1.3,0,0,1-1.14,1.34c-3.36.41-6.11,3-6.11,8.1v6a1.29,1.29,0,0,1-1.27,1.33,1.3,1.3,0,0,1-1.31-1.33V1.68"/><path class="cls-1" d="M108,18.67c-4.67,0-8.48-3.7-8.48-9.13V9.46c0-5.05,3.45-9.13,8.15-9.13,5,0,7.89,4.24,7.89,8.9a1.2,1.2,0,0,1-1.18,1.22H102.11c.35,3.8,3,5.94,6,5.94a6.82,6.82,0,0,0,4.89-2,1.15,1.15,0,0,1,.73-.3,1.12,1.12,0,0,1,1.12,1.12,1.16,1.16,0,0,1-.4.85A8.53,8.53,0,0,1,108,18.67m5-10.15c-.26-3.2-2-6-5.42-6-3,0-5.2,2.54-5.52,6Z"/><path class="cls-1" d="M71.59,13.17V13.1c0-3.72,3-5.71,7.39-5.71a18.15,18.15,0,0,1,5.32.75V7.53c0-3.18-1.91-4.83-5.15-4.83a8.64,8.64,0,0,0-4,.81,1.2,1.2,0,0,1-.46.1,1.16,1.16,0,0,1-1.14-1.13,1.08,1.08,0,0,1,.7-1.09,11.22,11.22,0,0,1,5.2-1,7.47,7.47,0,0,1,5.58,2,7.08,7.08,0,0,1,1.77,5.16v9.76a1.24,1.24,0,0,1-1.24,1.3,1.2,1.2,0,0,1-1.23-1.23V15.63a7.51,7.51,0,0,1-6.25,3c-3.21,0-6.46-1.88-6.46-5.51M84.33,11.8V10.09a17.91,17.91,0,0,0-5.08-.75c-3.24,0-5,1.44-5,3.66v.07c0,2.22,2,3.52,4.35,3.52,3.17,0,5.78-2,5.78-4.79"/><path class="cls-1" d="M4.72,1.49A2.41,2.41,0,0,0,1.45.24,2.47,2.47,0,0,0,.25,3.59l5.49,12.2C6.6,17.7,7.51,18.7,9.22,18.7s2.62-1.09,3.48-2.91L17.54,5a.68.68,0,0,1,.68-.45.77.77,0,0,1,.76.79V15.77c0,1.61.87,2.93,2.55,2.93s2.58-1.32,2.58-2.93V7.24a2.6,2.6,0,0,1,2.73-2.71,2.53,2.53,0,0,1,2.61,2.71v8.53c0,1.61.88,2.93,2.55,2.93a2.63,2.63,0,0,0,2.59-2.93V7.24a2.59,2.59,0,0,1,2.72-2.71,2.53,2.53,0,0,1,2.62,2.71v8.53c0,1.61.87,2.93,2.55,2.93s2.58-1.32,2.58-2.93V6.07A6,6,0,0,0,38.88,0a7.86,7.86,0,0,0-5.49,2.39A6,6,0,0,0,28.1,0c-2.76,0-5.18,2.39-5.18,2.39A6.14,6.14,0,0,0,18.3,0a5.68,5.68,0,0,0-5.58,3.88l-3.5,8.45L4.72,1.49"/><path class="cls-1" d="M115.79,2.54h0a2.14,2.14,0,1,1,4.28,0h0a2.14,2.14,0,1,1-4.28,0m3.87,0h0A1.74,1.74,0,0,0,117.93.74a1.77,1.77,0,0,0-1.74,1.79h0a1.74,1.74,0,1,0,3.47,0"/><path class="cls-1" d="M117.11,1.67a.23.23,0,0,1,.23-.24h.72a.8.8,0,0,1,.6.22.65.65,0,0,1,.18.48h0a.64.64,0,0,1-.41.64l.31.39a.26.26,0,0,1,.07.18.21.21,0,0,1-.21.22.29.29,0,0,1-.23-.12l-.44-.58h-.36v.47a.23.23,0,1,1-.46,0Zm.92.79c.22,0,.34-.12.34-.3h0c0-.19-.13-.3-.35-.3h-.45v.61Z"/><path class="cls-1" d="M144.23,2.83h-6V.35h14.58V2.83H146.9V18.5h-2.67Z"/><path class="cls-1" d="M165.07,6.08a5.71,5.71,0,0,1,1.51,4.15V18.5H164V16.65a5,5,0,0,1-2,1.6,6.12,6.12,0,0,1-2.57.57,5.48,5.48,0,0,1-3.62-1.19,3.91,3.91,0,0,1-1.42-3.17,4.09,4.09,0,0,1,.72-2.37,4.85,4.85,0,0,1,2-1.61,6.62,6.62,0,0,1,2.76-.57,12.89,12.89,0,0,1,4.13.74v-.42a3.93,3.93,0,0,0-.82-2.52,3.28,3.28,0,0,0-2.7-1,8.71,8.71,0,0,0-3.83,1.14l-1-1.93a11.62,11.62,0,0,1,5.18-1.38A5.55,5.55,0,0,1,165.07,6.08Zm-2.53,10A3,3,0,0,0,164,14.22V12.4a12.93,12.93,0,0,0-3.73-.53,4,4,0,0,0-2.38.71,2.16,2.16,0,0,0-1,1.8,2.06,2.06,0,0,0,.85,1.73,3.6,3.6,0,0,0,2.21.65A5,5,0,0,0,162.54,16.08Z"/><path class="cls-1" d="M180.18,5.19A4.65,4.65,0,0,1,182,7.05a5.74,5.74,0,0,1,.64,2.76V18.5h-2.53V10.26a3.55,3.55,0,0,0-.88-2.5,2.92,2.92,0,0,0-2.27-1,4.18,4.18,0,0,0-1.9.43,3.52,3.52,0,0,0-1.37,1.18,2.77,2.77,0,0,0-.51,1.61V18.5h-2.61V4.84h2.61v2A4.55,4.55,0,0,1,175,5.17a5.25,5.25,0,0,1,2.57-.65A5.13,5.13,0,0,1,180.18,5.19Z"/><path class="cls-1" d="M185.39,16.55l7.66-9.36h-7.5V4.84h11l0,2-7.67,9.35h7.74V18.5H185.39Z"/><path class="cls-1" d="M211.41,4.84V18.5H208.8V16.55A4.65,4.65,0,0,1,207,18.2a5.38,5.38,0,0,1-2.56.62,5.23,5.23,0,0,1-2.64-.66A4.53,4.53,0,0,1,200,16.29a5.74,5.74,0,0,1-.65-2.76V4.84h2.56v8.24a3.57,3.57,0,0,0,.87,2.5,2.94,2.94,0,0,0,2.28,1,4.1,4.1,0,0,0,1.88-.44,3.51,3.51,0,0,0,1.37-1.18,2.84,2.84,0,0,0,.5-1.61V4.84Z"/><path class="cls-1" d="M223.49.35h6.26a11.31,11.31,0,0,1,5.18,1.16,8.81,8.81,0,0,1,3.55,3.23,8.69,8.69,0,0,1,1.28,4.67,8.76,8.76,0,0,1-1.28,4.69,8.84,8.84,0,0,1-3.55,3.24,11.31,11.31,0,0,1-5.18,1.16h-6.26Zm6.42,15.72a7.77,7.77,0,0,0,3.68-.85,6.23,6.23,0,0,0,2.54-2.36A6.54,6.54,0,0,0,237,9.41,6.47,6.47,0,0,0,236.13,6a6.2,6.2,0,0,0-2.54-2.35,7.77,7.77,0,0,0-3.68-.85h-3.76V16.07Z"/><path class="cls-1" d="M245.8,17.85a7.23,7.23,0,0,1-2.63-2.61,6.94,6.94,0,0,1-1-3.58,6.85,6.85,0,0,1,1-3.57,7.28,7.28,0,0,1,2.63-2.6,7.09,7.09,0,0,1,7.16,0,7.36,7.36,0,0,1,2.63,2.6,6.84,6.84,0,0,1,1,3.57,6.93,6.93,0,0,1-1,3.58A7.31,7.31,0,0,1,253,17.85a7.09,7.09,0,0,1-7.16,0Zm5.86-2A5,5,0,0,0,254,11.66a5,5,0,0,0-.62-2.45,4.9,4.9,0,0,0-1.67-1.77,4.22,4.22,0,0,0-2.28-.64,4.28,4.28,0,0,0-2.29.64,4.87,4.87,0,0,0-1.66,1.77,5.13,5.13,0,0,0,0,4.89,4.93,4.93,0,0,0,1.66,1.79,4.21,4.21,0,0,0,2.29.66A4.16,4.16,0,0,0,251.66,15.89Z"/><path class="cls-1" d="M262.23,17.84a7.47,7.47,0,0,1-2.64-2.63,6.84,6.84,0,0,1,0-7.09,7.47,7.47,0,0,1,2.65-2.62,7,7,0,0,1,3.57-1,6.85,6.85,0,0,1,2.74.56,7.72,7.72,0,0,1,2.31,1.56l-1.77,1.64a4.78,4.78,0,0,0-1.5-1.09,4.24,4.24,0,0,0-4,.27,4.71,4.71,0,0,0-1.68,1.78,5.07,5.07,0,0,0,0,4.86,4.82,4.82,0,0,0,1.68,1.79,4.2,4.2,0,0,0,2.27.66,4.28,4.28,0,0,0,1.82-.41A4.91,4.91,0,0,0,269.17,15l1.77,1.61a7.8,7.8,0,0,1-2.34,1.62,7,7,0,0,1-6.37-.4Z"/><path class="cls-1" d="M275.08,18.29a8.82,8.82,0,0,1-2.74-1.51L273.52,15a9.42,9.42,0,0,0,2.33,1.28,6.74,6.74,0,0,0,2.33.43,3.35,3.35,0,0,0,1.94-.5,1.55,1.55,0,0,0,.72-1.34,1.4,1.4,0,0,0-.76-1.31,11,11,0,0,0-2.41-.89,10.84,10.84,0,0,1-3.6-1.56A2.88,2.88,0,0,1,273,8.67a3.69,3.69,0,0,1,1.39-3,5.45,5.45,0,0,1,3.58-1.14,8.59,8.59,0,0,1,2.61.43A9.72,9.72,0,0,1,283,6.11L281.9,8a7.57,7.57,0,0,0-4-1.32,3.2,3.2,0,0,0-1.79.46,1.48,1.48,0,0,0-.7,1.28,1.16,1.16,0,0,0,.32.85,2.87,2.87,0,0,0,1,.57c.42.16,1.09.39,2,.67a20.72,20.72,0,0,1,2.42.86,4,4,0,0,1,1.57,1.2,3.15,3.15,0,0,1,.64,2.06,3.74,3.74,0,0,1-1.44,3.08,5.86,5.86,0,0,1-3.74,1.15A9.44,9.44,0,0,1,275.08,18.29Z"/></svg>